<svg id="Layer_1" data-name="Layer 1" xmlns="http://www.w3.org/2000/svg" viewBox="0 0 662.07 594.76"><defs><style>.cls-1{fill:#d4b659;}.cls-2{fill:#0c0d0d;}.cls-3,.cls-7,.cls-9{fill:#294494;}.cls-3{stroke:#fff;}.cls-3,.cls-5{stroke-miterlimit:10;}.cls-4{fill:#fff;}.cls-5{fill:#e11419;stroke:#d3b659;}.cls-6{fill:#010101;}.cls-8{fill:#a57c13;}.cls-9{font-size:47.84px;font-family:Arial-BoldMT, Arial;font-weight:700;}.cls-10{fill:#d3b659;}</style></defs><path class="cls-1" d="M410.09,706.91l-.45-.59c-.3-.39-31.17-39.5-93.06-49.92-44.71-7.54-86.13-27.89-116.61-57.3-34.39-33.18-52.57-75.61-52.57-122.68,0-54.25,12.55-92.81,22.64-123.81,7-21.33,13-39.76,13.54-58.31,1.15-35.87-47.42-82.28-47.91-82.75l-1.17-1.11L240,115.15h.56c.94,0,1.57.58,5,3.76,12.16,11.12,49.14,45,96.23,45,23.64,0,46.56-8.66,68.12-25.73l.41-.33h1.43l.41.33c21.56,17.07,44.48,25.73,68.12,25.73,47.07,0,84.06-33.84,96.21-45,3.49-3.18,4.11-3.76,5-3.76h.58l105.46,95.3-1.18,1.11c-.49.47-49,46.88-47.9,82.75.6,19,6.65,37.54,13.66,59,10,30.75,22.52,69,22.52,123.12,0,47.07-18.18,89.5-52.57,122.68-30.49,29.41-71.9,49.76-116.62,57.3-61.95,10.43-92.75,49.53-93,49.92l-.45.59Z" transform="translate(-79.4 -113.64)"/><path class="cls-2" d="M581.51,116.64h0l103.83,93.82S635.79,257.37,637,294.34c1.51,47.28,36.18,91.29,36.18,182.08,0,100.58-83,164.19-167.93,178.5-63.25,10.65-94,50.48-94,50.48h-.39s-30.75-39.83-94-50.48C231.88,640.61,148.9,577,148.9,476.42c0-90.7,34.7-135.67,36.18-182.08,1.18-37-48.38-83.88-48.38-83.88l103.83-93.82h0c2.07,0,44.46,48.72,101.24,48.72,21.43,0,44.9-6.93,69.05-26.06h.39c24.14,19.12,47.62,26.06,69,26.06,56.78,0,99.16-48.72,101.24-48.72m1.16-3h-1.16c-1.5,0-2.19.64-6,4.16-12.05,11-48.71,44.56-95.2,44.56-23.29,0-45.9-8.55-67.19-25.41l-.82-.65h-2.48L409,137c-21.28,16.86-43.89,25.41-67.18,25.41-46.5,0-83.17-33.55-95.21-44.57-3.84-3.51-4.54-4.15-6-4.15h-1.16l-.86.78L134.69,208.24l-2.4,2.17,2.35,2.23c.49.46,48.56,46.42,47.44,81.61-.58,18.34-6.55,36.67-13.46,57.9-10.13,31.09-22.72,69.79-22.72,124.27,0,47.49,18.33,90.28,53,123.76,30.71,29.62,72.4,50.11,117.41,57.7a165.41,165.41,0,0,1,69.26,28.56c15.13,10.92,22.79,20.7,22.86,20.8l.9,1.16h3.34l.91-1.16c.07-.1,7.72-9.88,22.86-20.8a165.42,165.42,0,0,1,69.25-28.56c45-7.59,86.71-28.08,117.41-57.7,34.69-33.48,53-76.27,53-123.76,0-54.34-12.53-92.73-22.6-123.58-7-21.35-13-39.79-13.58-58.59-1.13-35.22,46.95-81.15,47.43-81.61l2.36-2.23-2.41-2.17L583.53,114.42l-.86-.78Z" transform="translate(-79.4 -113.64)"/><polygon class="cls-3" points="68.88 94.83 163.02 13.03 228.61 60.1 294.97 53.93 335.87 39.27 356.7 53.93 410.72 59.33 467.05 40.04 503.31 13.03 594.37 94.83 558.1 143.44 547.3 182.02 567.36 249.15 586.65 347.92 580.48 413.51 543.44 468.3 497.14 511.51 440.81 529.26 386.03 543.92 335.1 575.56 321.21 568.61 283.4 547.01 213.95 528.49 147.59 499.17 103.61 455.18 76.6 383.42 78.14 321.69 88.94 271.53 106.69 216.75 115.18 174.3 93.57 126.46 68.88 94.83"/><path class="cls-4" d="M302.28,636.56l-.13,0L258,625.25l-25.33-15.64V133l57.37,30.42a1.23,1.23,0,0,0,.49.16l51.9,7.58V650.76Z" transform="translate(-79.4 -113.64)"/><path class="cls-1" d="M234.18,135.52l55.17,29.25a3,3,0,0,0,1,.32l50.62,7.39V648.64l-38.16-13.49-.26-.08-43.91-11.21-24.43-15.09V135.52m-3-5V610.44l26.24,16.21L301.78,638l42.16,14.9v-483l-53.19-7.77-59.57-31.59Z" transform="translate(-79.4 -113.64)"/><path class="cls-4" d="M479.6,171.18l51.91-7.58a1.28,1.28,0,0,0,.51-.17l57.35-31.89V609.61L564,625.26l-40.68,11.8L479.6,650.84Z" transform="translate(-79.4 -113.64)"/><path class="cls-1" d="M587.87,134.09V608.77L563.4,623.88l-40.48,11.74-.07,0L481.1,648.79V172.48l50.63-7.39a2.81,2.81,0,0,0,1-.35l55.12-30.65m3-5.1-59.58,33.13-53.19,7.77v483l45.65-14.38,40.88-11.85,26.24-16.21V129Z" transform="translate(-79.4 -113.64)"/><path class="cls-4" d="M244.45,393c-1.94-13.49,4.31-22.74,14.89-24.26s19.17,5.63,21.1,19.1-4.27,23-14.84,24.56S246.38,406.5,244.45,393Zm30.46-4.37c-1.5-10.49-7.38-16.25-14.9-15.17s-11.53,8.26-10,18.75,7.42,16.55,14.94,15.48S276.41,399.13,274.91,388.64Z" transform="translate(-79.4 -113.64)"/><path class="cls-4" d="M294.58,375.75l4.37-.5,1,4.48.17,0c2.4-3.27,5.4-6,9.13-6.43,4.78-.56,7.61,1.44,9.33,5,2.84-3.89,5.83-6.71,9.63-7.15,6.44-.74,10,3.16,10.94,11.14l2.29,19.83-5.3.61-2.21-19.15c-.67-5.83-2.8-8.11-6.78-7.65-2.43.28-4.77,2.16-7.29,5.71l2.61,22.67-5.29.61L315,385.71c-.68-5.83-2.81-8.11-6.79-7.65-2.34.27-4.76,2.16-7.29,5.71l2.62,22.67-5.3.61Z" transform="translate(-79.4 -113.64)"/><path class="cls-4" d="M357.17,394.42l-3.24-39.72,5.31-.43,3.27,40.1c.13,1.63.89,2.22,1.67,2.15a4.23,4.23,0,0,0,1.15-.22l1.05,4a8.53,8.53,0,0,1-3,.74C359.38,401.37,357.54,399,357.17,394.42Z" transform="translate(-79.4 -113.64)"/><path class="cls-4" d="M377.9,390.92c-.26-6.86,5.53-10.51,18.9-12.47-.17-4.05-1.66-7.91-6.8-7.71-3.64.13-6.86,2-9.26,3.72l-2.23-3.57a23.06,23.06,0,0,1,12.22-4.57c7.68-.29,11.12,4.69,11.42,12.53l.72,19.32-4.4.16-.59-3.74h-.18c-2.91,2.61-6.33,4.79-10.24,4.93C382.19,399.72,378.11,396.6,377.9,390.92Zm19.35-.23-.32-8.75c-10.51,1.67-14,4.38-13.83,8.41.14,3.58,2.62,4.94,5.71,4.82S394.31,393.49,397.25,390.69Z" transform="translate(-79.4 -113.64)"/><path class="cls-4" d="M416.92,382.53c.52-10.21,7.29-16.22,14.46-15.85,3.66.19,6,1.69,8.63,4.1l.05-5.41.63-12.12,5.32.27-2.37,46.11-4.4-.22-.26-3.74h-.17c-2.58,2.32-6,4.19-9.78,4C421.17,399.26,416.38,393,416.92,382.53Zm21.81,8.83.85-16.49c-2.57-2.53-4.94-3.53-7.51-3.67-5-.25-9.28,4.39-9.65,11.56-.39,7.55,2.5,12.2,8,12.48C433.35,395.39,435.94,394.1,438.73,391.36Z" transform="translate(-79.4 -113.64)"/><path class="cls-4" d="M463.08,369.64l5.31.47-2.75,31.39-5.31-.47Zm-.1-10a3.69,3.69,0,0,1,7.33.65,3.69,3.69,0,0,1-7.33-.65Z" transform="translate(-79.4 -113.64)"/><path class="cls-4" d="M485.86,371.76l4.38.48-.05,4.56.18,0c3.3-2.6,6.79-4.6,11.08-4.13,6.6.73,9.1,5.31,8.22,13.3l-2.19,19.84-5.3-.58,2.11-19.16c.64-5.83-.84-8.52-5-9-3.2-.35-5.6,1-9.09,3.87l-2.5,22.68-5.3-.59Z" transform="translate(-79.4 -113.64)"/><path class="cls-4" d="M523,399.48c.89-6.81,7.2-9.45,20.71-9.18.5-4-.33-8.06-5.43-8.73-3.61-.46-7.09.83-9.75,2.15l-1.6-3.9a23.14,23.14,0,0,1,12.8-2.49c7.62,1,10.19,6.48,9.19,14.26l-2.49,19.17-4.37-.56,0-3.8-.18,0c-3.29,2.09-7,3.67-10.91,3.17C525.78,408.87,522.27,405.11,523,399.48Zm19.13,3,1.13-8.68c-10.64-.1-14.51,2-15,6-.46,3.55,1.76,5.3,4.83,5.7S538.76,404.73,542.13,402.45Z" transform="translate(-79.4 -113.64)"/><path class="cls-4" d="M562.44,397.1c1.49-10.41,9.39-15.4,17.36-14.25a13.24,13.24,0,0,1,8.6,5l-3.2,3.1a9.11,9.11,0,0,0-5.79-3.64c-5.65-.81-10.49,3.46-11.52,10.6s2.2,12.5,7.94,13.32a11.33,11.33,0,0,0,7.77-2.06l1.78,3.87a15.36,15.36,0,0,1-10.66,2.51C566.42,414.33,561,407.43,562.44,397.1Z" transform="translate(-79.4 -113.64)"/><polygon class="cls-5" points="190.36 48.87 154.52 48.87 154.52 13.03 190.36 28.78 190.36 48.87"/><rect class="cls-5" x="226.2" y="84.72" width="35.84" height="35.84"/><rect class="cls-5" x="154.52" y="84.72" width="35.84" height="35.84"/><rect class="cls-5" x="154.52" y="156.4" width="35.84" height="35.84"/><rect class="cls-5" x="226.2" y="156.4" width="35.84" height="35.84"/><rect class="cls-5" x="154.52" y="228.09" width="35.84" height="35.84"/><rect class="cls-5" x="226.2" y="228.09" width="35.84" height="35.84"/><rect class="cls-5" x="190.36" y="48.87" width="35.84" height="35.84"/><rect class="cls-5" x="190.36" y="120.56" width="35.84" height="35.84"/><rect class="cls-5" x="190.36" y="192.24" width="35.84" height="35.84"/><rect class="cls-5" x="190.36" y="263.93" width="35.84" height="35.84"/><polygon class="cls-5" points="473.01 48.87 508.85 48.87 508.85 13.03 473.01 28.78 473.01 48.87"/><rect class="cls-5" x="480.72" y="198.36" width="35.84" height="35.84" transform="translate(917.89 318.92) rotate(-180)"/><rect class="cls-5" x="552.41" y="198.36" width="35.84" height="35.84" transform="translate(1061.26 318.92) rotate(-180)"/><rect class="cls-5" x="552.41" y="270.04" width="35.84" height="35.84" transform="translate(1061.26 462.29) rotate(-180)"/><rect class="cls-5" x="480.72" y="270.04" width="35.84" height="35.84" transform="translate(917.89 462.29) rotate(-180)"/><rect class="cls-5" x="552.41" y="341.73" width="35.84" height="35.84" transform="translate(1061.26 605.66) rotate(-180)"/><rect class="cls-5" x="480.72" y="341.73" width="35.84" height="35.84" transform="translate(917.89 605.66) rotate(-180)"/><rect class="cls-5" x="516.57" y="162.52" width="35.84" height="35.84" transform="translate(989.57 247.23) rotate(-180)"/><rect class="cls-5" x="516.57" y="234.2" width="35.84" height="35.84" transform="translate(989.57 390.6) rotate(-180)"/><rect class="cls-5" x="516.57" y="305.89" width="35.84" height="35.84" transform="translate(989.57 533.97) rotate(-180)"/><rect class="cls-5" x="516.57" y="377.57" width="35.84" height="35.84" transform="translate(989.57 677.34) rotate(-180)"/><path class="cls-1" d="M581.28,143.38l75.51,68.24C653,216,648.86,221,644.7,226.55,625.67,252,616.34,275,617,295c.7,22.08,7.51,42.93,14.71,65,10.06,30.83,21.46,65.76,21.46,116.45,0,41.1-15.91,78.17-46,107.21-27.39,26.43-64.78,44.75-105.26,51.56-44,7.42-74.16,27.63-90.87,42.11-16.7-14.48-46.84-34.69-90.87-42.11-40.48-6.81-77.86-25.13-105.26-51.56-30.09-29-46-66.11-46-107.21,0-50.83,11.47-86.07,21.59-117.15,7.14-21.94,13.89-42.67,14.58-64.29.64-20-8.69-43-27.73-68.43C173.19,221,169,216,165.26,211.62l75.51-68.24c19,16.11,55.32,42,101,42,24.08,0,47.31-7.24,69.24-21.56,21.93,14.32,45.17,21.56,69.25,21.56,45.69,0,82-25.88,101-42m.23-26.74c-2.08,0-44.46,48.72-101.24,48.72-21.43,0-44.91-6.94-69-26.06h-.39c-24.15,19.13-47.62,26.06-69.05,26.06-56.78,0-99.17-48.72-101.24-48.72h0L136.71,210.46s49.55,46.91,48.37,83.88c-1.48,46.41-36.18,91.38-36.18,182.08,0,100.58,83,164.19,167.93,178.5,63.25,10.65,94,50.49,94,50.49h.39s30.75-39.84,94-50.49c84.95-14.31,167.93-77.92,167.93-178.5,0-90.79-34.67-134.8-36.18-182.08-1.18-37,48.37-83.88,48.37-83.88L581.51,116.64Z" transform="translate(-79.4 -113.64)"/><path class="cls-1" d="M581.28,143.38l75.51,68.24C653,216,648.86,221,644.7,226.55,625.67,252,616.34,275,617,295c.7,22.08,7.51,42.93,14.71,65,10.06,30.83,21.46,65.76,21.46,116.45,0,41.1-15.91,78.17-46,107.21-27.39,26.43-64.78,44.75-105.26,51.56-44,7.42-74.16,27.63-90.87,42.11-16.7-14.48-46.84-34.69-90.87-42.11-40.48-6.81-77.86-25.13-105.26-51.56-30.09-29-46-66.11-46-107.21,0-50.83,11.47-86.07,21.59-117.15,7.14-21.94,13.89-42.67,14.58-64.29.64-20-8.69-43-27.73-68.43C173.19,221,169,216,165.26,211.62l75.51-68.24c19,16.11,55.32,42,101,42,24.08,0,47.31-7.24,69.24-21.56,21.93,14.32,45.17,21.56,69.25,21.56,45.69,0,82-25.88,101-42m.23-26.74c-2.08,0-44.46,48.72-101.24,48.72-21.43,0-44.91-6.94-69-26.06h-.39c-24.15,19.13-47.62,26.06-69.05,26.06-56.78,0-99.17-48.72-101.24-48.72h0L136.71,210.46s49.55,46.91,48.37,83.88c-1.48,46.41-36.18,91.38-36.18,182.08,0,100.58,83,164.19,167.93,178.5,63.25,10.65,94,50.49,94,50.49h.39s30.75-39.84,94-50.49c84.95-14.31,167.93-77.92,167.93-178.5,0-90.79-34.67-134.8-36.18-182.08-1.18-37,48.37-83.88,48.37-83.88L581.51,116.64Z" transform="translate(-79.4 -113.64)"/><circle class="cls-4" cx="331.62" cy="399.24" r="55.17"/><path class="cls-1" d="M359.65,630.19h7.78v-25h-6.19v-2.81a20.82,20.82,0,0,0,7.22-2.49h3.34v30.3h7v3.64H359.65Z" transform="translate(-79.4 -113.64)"/><path class="cls-1" d="M386,630.88l2.43-2.73a7.44,7.44,0,0,0,5.58,2.68c4.9,0,9-3.88,9-15.26,0-8.35-2.71-12.87-7.58-12.87-3.33,0-5.91,3-5.91,7.44s2.08,7.2,6.28,7.2c2.21,0,5-1.32,7.3-4.8l.16,3.46c-2.14,2.85-5.31,4.64-8.19,4.64-5.88,0-9.68-3.53-9.68-10.5,0-6.5,4.58-10.89,10-10.89,6.69,0,11.72,5.42,11.72,16.32,0,13.65-6.17,18.9-12.94,18.9A10.74,10.74,0,0,1,386,630.88Z" transform="translate(-79.4 -113.64)"/><path class="cls-1" d="M413.58,618.15c0-13.65,6.17-18.9,12.94-18.9a10.81,10.81,0,0,1,8.18,3.58l-2.43,2.74a7.44,7.44,0,0,0-5.58-2.68c-4.88,0-9,3.87-9,15.26,0,8.34,2.7,12.87,7.57,12.87,3.33,0,5.91-3,5.91-7.44s-2.08-7.21-6.28-7.21c-2.21,0-5,1.32-7.3,4.81l-.16-3.46c2.14-2.85,5.31-4.64,8.19-4.64,5.88,0,9.68,3.53,9.68,10.5,0,6.5-4.58,10.89-10,10.89C418.61,634.47,413.58,629.05,413.58,618.15Z" transform="translate(-79.4 -113.64)"/><path class="cls-1" d="M440.21,629.68l2.2-2.86a11.57,11.57,0,0,0,8.66,4c4.13,0,7.05-2.41,7.05-6.23,0-4-2.77-6.73-10.83-6.73v-3.36c7.19,0,9.63-2.77,9.63-6.32,0-3.3-2.26-5.38-5.86-5.38a10.23,10.23,0,0,0-7.24,3.44l-2.36-2.77a14.07,14.07,0,0,1,9.75-4.23c5.91,0,10.16,3.13,10.16,8.62,0,4.08-2.48,6.7-6.17,8.06v.21c4.1,1,7.37,4,7.37,8.63,0,6.05-5,9.7-11.21,9.7A14.29,14.29,0,0,1,440.21,629.68Z" transform="translate(-79.4 -113.64)"/><path class="cls-6" d="M411,219.27" transform="translate(-79.4 -113.64)"/><rect class="cls-7" x="270.71" y="326.32" width="120.38" height="136.58"/><path class="cls-1" d="M109.31,445.36c0-7.25.27-14.44.77-21.56-8.12,3.85-15.82,7.86-23,12a303.64,303.64,0,0,0-1.56,76.46,363.08,363.08,0,0,1,52.4-24.58l-26.76-9A305.36,305.36,0,0,1,109.31,445.36Z" transform="translate(-79.4 -113.64)"/><path class="cls-8" d="M139.41,486.58V464q-14.1,6.48-26.49,13.61Z" transform="translate(-79.4 -113.64)"/><path class="cls-2" d="M140.18,486.84l.25.09-.25.73h0l-.25.73-.89-.3a360.48,360.48,0,0,0-54.19,25.46,304.24,304.24,0,0,1,1.5-78.21q11.18-6.46,23.79-12.42c0-.3,0-.59.07-.88q-12.87,6-24.25,12.63l-.32.19-.06.37a305.72,305.72,0,0,0-1.5,78.4l.13,1.18,1-.6a361.47,361.47,0,0,1,55.21-25.83l.5-.19V463.33l-.77.35Z" transform="translate(-79.4 -113.64)"/><polygon class="cls-2" points="60.78 374.01 60.78 374.01 60.78 374.01 60.78 374.01"/><path class="cls-2" d="M139.41,486.58l.77.26V463.68l-.77.35Z" transform="translate(-79.4 -113.64)"/><polygon class="cls-2" points="60.78 374.01 60.78 374.01 60.78 374.01 60.78 374.01"/><path class="cls-2" d="M85.49,512.28a303.64,303.64,0,0,1,1.56-76.46c7.21-4.16,14.91-8.17,23-12l.06-.88q-12.6,5.94-23.79,12.42a304.24,304.24,0,0,0-1.5,78.21A360.48,360.48,0,0,1,139,488.09l-1.15-.39A363.08,363.08,0,0,0,85.49,512.28Z" transform="translate(-79.4 -113.64)"/><path class="cls-1" d="M708,401.43C674.3,382,630.15,366,580.27,354.91,527.6,343.25,470.66,337.33,411,337.33c-89.81,0-176.47,14-244,39.48a364.1,364.1,0,0,0-53,24.62c-1,6.56-1.7,13.19-2.23,19.85,0,.29,0,.58-.07.88s0,.59-.07.89c-.55,7.42-.83,14.88-.83,22.31a304.44,304.44,0,0,0,1.57,30.78c8.38-4.81,17.4-9.42,27-13.8l.77-.36.77-.35q11.93-5.38,25-10.3c67.82-25.49,154.73-39.53,244.72-39.53,117.21,0,228.7,24.18,299,64.76A304.46,304.46,0,0,0,708,401.43Z" transform="translate(-79.4 -113.64)"/><path class="cls-6" d="M709.41,400.46C641.61,361.21,533.2,335.79,411,335.79c-93.63,0-179.17,14.93-244.55,39.57a365,365,0,0,0-53.84,25.1Q111,411.14,110.21,422l.81-.39c.54-6.94,1.31-13.86,2.32-20.71a364.54,364.54,0,0,1,53.4-24.85C234.36,350.6,321.11,336.56,411,336.56c59.69,0,116.69,5.92,169.42,17.6,50.12,11.1,94.46,27.27,128.26,46.78a304.81,304.81,0,0,1,1.53,76.89C640.15,437,528.29,412.57,410.64,412.57c-89.9,0-176.71,14-244.45,39.49Q153,457,141,462.48v.85q12.17-5.54,25.52-10.55c65.33-24.56,150.72-39.44,244.17-39.44,123.29,0,232.56,25.89,300.23,65.75a304.7,304.7,0,0,0-1.46-78.63Z" transform="translate(-79.4 -113.64)"/><path class="cls-6" d="M111.13,478.67l.51-1.46.12,0a306.15,306.15,0,0,1-1.68-31.89q0-11,.8-21.94l-.8.38c-.5,7.12-.77,14.31-.77,21.56A305.36,305.36,0,0,0,111.13,478.67Z" transform="translate(-79.4 -113.64)"/><path class="cls-6" d="M112.92,477.64q12.38-7.12,26.49-13.61v-.84c-9.78,4.48-19,9.2-27.47,14.12Z" transform="translate(-79.4 -113.64)"/><path class="cls-6" d="M140.18,462.83v.85l.77-.35v-.85Z" transform="translate(-79.4 -113.64)"/><path class="cls-6" d="M111,422.54c0-.3,0-.59.07-.89l-.81.39c0,.29,0,.58-.07.88Z" transform="translate(-79.4 -113.64)"/><path class="cls-6" d="M110.88,423.42c0-.29,0-.59.07-.88l-.81.38-.06.88Z" transform="translate(-79.4 -113.64)"/><path class="cls-6" d="M139.41,464l.77-.35v-.85l-.77.36Z" transform="translate(-79.4 -113.64)"/><path class="cls-6" d="M114.05,401.43a364.1,364.1,0,0,1,53-24.62c67.54-25.46,154.2-39.48,244-39.48,59.64,0,116.58,5.92,169.25,17.58,49.88,11,94,27.13,127.73,46.52a304.46,304.46,0,0,1,1.59,75.13c-70.25-40.58-181.74-64.76-299-64.76-90,0-176.9,14-244.72,39.53q-13,4.91-25,10.3v.85q12-5.46,25.24-10.42c67.74-25.47,154.55-39.49,244.45-39.49,117.65,0,229.51,24.38,299.59,65.26a304.81,304.81,0,0,0-1.53-76.89c-33.8-19.51-78.14-35.68-128.26-46.78-52.73-11.68-109.73-17.6-169.42-17.6-89.91,0-176.66,14-244.28,39.53a364.54,364.54,0,0,0-53.4,24.85c-1,6.85-1.78,13.77-2.32,20.71l.8-.37C112.35,414.62,113.09,408,114.05,401.43Z" transform="translate(-79.4 -113.64)"/><path class="cls-6" d="M110.85,445.36c0-7.43.28-14.89.83-22.31l-.8.37q-.8,11-.8,21.94a306.15,306.15,0,0,0,1.68,31.89l.18.06c8.51-4.92,17.69-9.64,27.47-14.12v-.85c-9.59,4.38-18.61,9-27,13.8A304.44,304.44,0,0,1,110.85,445.36Z" transform="translate(-79.4 -113.64)"/><path class="cls-6" d="M140.18,462v.85l.77-.35v-.85Z" transform="translate(-79.4 -113.64)"/><path class="cls-6" d="M111.75,422.16c0-.3,0-.59.07-.88l-.8.37c0,.3,0,.59-.07.89Z" transform="translate(-79.4 -113.64)"/><path class="cls-6" d="M111.68,423.05c0-.3,0-.6.07-.89l-.8.38c0,.29,0,.59-.07.88Z" transform="translate(-79.4 -113.64)"/><path class="cls-6" d="M139.41,462.34v.85l.77-.36V462Z" transform="translate(-79.4 -113.64)"/><path class="cls-6" d="M111.13,478.67l26.76,9,1.14-.44-26.84-9.2Z" transform="translate(-79.4 -113.64)"/><path class="cls-6" d="M112.19,478.06l26.84,9.2.38-.14v-.54l-26.49-8.94Z" transform="translate(-79.4 -113.64)"/><polygon class="cls-6" points="61.03 373.28 60.78 373.2 60.78 374.01 61.03 373.28"/><path class="cls-6" d="M139.93,488.39l.25-.73-1.14.43Z" transform="translate(-79.4 -113.64)"/><path class="cls-6" d="M139,487.26l-1.14.44,1.15.39,1.14-.43h0Z" transform="translate(-79.4 -113.64)"/><path class="cls-6" d="M139.41,487.12l-.38.14,1.15.4h0v-.82l-.77-.26Z" transform="translate(-79.4 -113.64)"/><path class="cls-1" d="M712.72,445.36q0-10.87-.76-21.56,12.18,5.77,23,12a304.39,304.39,0,0,1,1.57,76.46,363.72,363.72,0,0,0-52.41-24.58l26.76-9A305.36,305.36,0,0,0,712.72,445.36Z" transform="translate(-79.4 -113.64)"/><path class="cls-8" d="M682.63,486.58V464q14.08,6.48,26.49,13.61Z" transform="translate(-79.4 -113.64)"/><path class="cls-2" d="M681.86,486.84l-.25.09.25.73h0l.25.73.88-.3a361.08,361.08,0,0,1,54.2,25.46,305.47,305.47,0,0,0-1.5-78.21q-11.18-6.46-23.79-12.42c0-.3,0-.59-.07-.88,8.57,4,16.68,8.25,24.25,12.63l.32.19.05.37a306.42,306.42,0,0,1,1.51,78.4l-.13,1.18-1-.6a361.47,361.47,0,0,0-55.21-25.83l-.5-.19V463.33l.77.35Z" transform="translate(-79.4 -113.64)"/><polygon class="cls-2" points="603.05 374.01 603.05 374.01 603.05 374.01 603.05 374.01"/><path class="cls-2" d="M682.63,486.58l-.77.26V463.68l.77.35Z" transform="translate(-79.4 -113.64)"/><polygon class="cls-2" points="603.05 374.01 603.05 374.01 603.05 374.01 603.05 374.01"/><path class="cls-2" d="M736.55,512.28A304.39,304.39,0,0,0,735,435.82q-10.82-6.24-23-12c0-.29,0-.59-.06-.88q12.58,5.94,23.79,12.42a305.47,305.47,0,0,1,1.5,78.21A361.08,361.08,0,0,0,683,488.09l1.15-.39A363.72,363.72,0,0,1,736.55,512.28Z" transform="translate(-79.4 -113.64)"/><path class="cls-6" d="M710.9,478.67l-26.76,9-1.14-.44,26.84-9.2Z" transform="translate(-79.4 -113.64)"/><path class="cls-6" d="M709.84,478.06,683,487.26l-.37-.14v-.54l26.49-8.94Z" transform="translate(-79.4 -113.64)"/><polygon class="cls-6" points="602.21 373.28 602.46 373.2 602.46 374.01 602.21 373.28"/><path class="cls-6" d="M682.11,488.39l-.25-.73,1.13.43Z" transform="translate(-79.4 -113.64)"/><path class="cls-6" d="M683,487.26l1.14.44-1.15.39-1.13-.43h0Z" transform="translate(-79.4 -113.64)"/><path class="cls-6" d="M111.13,478.67l1.06-.61-.59-.2.59.2.73-.42-1-.33-.17.09s0-.1,0-.15l-.12,0Z" transform="translate(-79.4 -113.64)"/><path class="cls-6" d="M111.94,477.31l-.18-.06c0,.05,0,.1,0,.15Z" transform="translate(-79.4 -113.64)"/><text class="cls-9" transform="translate(94.24 317.25) rotate(-18.26)">N</text><text class="cls-9" transform="matrix(0.97, -0.25, 0.25, 0.97, 126.54, 306.62)">K</text><text class="cls-9" transform="translate(159.76 298.38) rotate(-11.99)"> </text><text class="cls-9" transform="translate(172.42 295.46) rotate(-9.82)">O</text><text class="cls-9" transform="translate(208.66 289.16) rotate(-6.86)">M</text><text class="cls-9" transform="translate(247.89 284.55) rotate(-4.45)">L</text><text class="cls-9" transform="translate(276.74 282.26) rotate(-2.36)">A</text><text class="cls-9" transform="translate(310.95 280.9) rotate(-0.34)">D</text><text class="cls-9" transform="translate(345.29 280.88) rotate(1.32)">I</text><text class="cls-9" transform="translate(358.37 281.03) rotate(2.85)">N</text><text class="cls-9" transform="translate(392.55 282.72) rotate(5.15)">A</text><text class="cls-9" transform="translate(426.6 285.77) rotate(7.62)">C</text><text class="cls-9" transform="translate(460.57 290.48) rotate(9.47)"> </text><text class="cls-9" transform="matrix(0.98, 0.2, -0.2, 0.98, 473.43, 292.42)">N</text><text class="cls-9" transform="translate(506.94 299.43) rotate(13.73)">I</text><text class="cls-9" transform="translate(519.58 302.34) rotate(15.98)">Z</text><text class="cls-9" transform="translate(547.18 310.08) rotate(20.01)">A</text><path class="cls-6" d="M682.63,487.12l.37.14-1.14.4h0v-.82l.77-.26Z" transform="translate(-79.4 -113.64)"/><path class="cls-10" d="M445.52,562.37a41.15,41.15,0,0,0,6.29-15.46c-1.41-14.48-13.08-29.43-24.4-38.1a.89.89,0,0,1-.19-.2A73.59,73.59,0,0,0,418,521.47C431.32,529.64,444.57,545.94,445.52,562.37Z" transform="translate(-79.4 -113.64)"/><path class="cls-10" d="M395.86,540.89a128.86,128.86,0,0,0,15.06-2.36c.91-14.28,10.8-27.16,19.44-35.8a41.13,41.13,0,0,0-15.14-4.53C407.43,504,396.18,523.33,395.86,540.89Z" transform="translate(-79.4 -113.64)"/><path class="cls-10" d="M428.34,507.36l.12.07c10.13,7.75,20.53,20.45,24,33.52,0-.53,0-1.06,0-1.6a41.33,41.33,0,0,0-20.57-35.75Q430.16,505.37,428.34,507.36Z" transform="translate(-79.4 -113.64)"/><path class="cls-10" d="M377.33,539.35a.89.89,0,0,1-.11.43,50.42,50.42,0,0,0,16.9,1.25c.24-17.3,10.47-35.72,18.57-43-.5,0-1,0-1.53,0a41.44,41.44,0,0,0-11.91,1.75C390.23,505.38,377.33,523.41,377.33,539.35Z" transform="translate(-79.4 -113.64)"/><path class="cls-10" d="M443.84,564.22c0-16.37-13.28-33-26.62-41.21a40.66,40.66,0,0,0-4.54,15.19.79.79,0,0,1,.47.19l0,0c13.25,10.14,19.37,26.33,18.56,36.8a41.64,41.64,0,0,0,12.17-10.63A.86.86,0,0,1,443.84,564.22Z" transform="translate(-79.4 -113.64)"/><path class="cls-10" d="M375.6,539.28c0-14,9.6-29.48,18.2-37.45a41.34,41.34,0,0,0-23.88,34.78A27,27,0,0,0,375.6,539.28Z" transform="translate(-79.4 -113.64)"/><path class="cls-10" d="M430,575.69a27.79,27.79,0,0,0-.35-7.66,108,108,0,0,1-29.44,4.43,50.52,50.52,0,0,1-16.68-2.4A41.32,41.32,0,0,0,430,576.14,1,1,0,0,1,430,575.69Z" transform="translate(-79.4 -113.64)"/><path class="cls-10" d="M429.27,566.32a46.16,46.16,0,0,0-5.53-13.5.71.71,0,0,1-.18.08c-10.65,3.2-22.89,5.4-33.32,5.4-6.89,0-13-1-17.33-3.24a41.52,41.52,0,0,0,7,11.4C390.05,572.92,412.81,571.23,429.27,566.32Z" transform="translate(-79.4 -113.64)"/><path class="cls-10" d="M372.49,552.81c9.75,6.38,32.85,3.7,50.3-1.49A47,47,0,0,0,412.4,540l-.11,0a.88.88,0,0,1-.55.2h0a.65.65,0,0,1-.2,0A110.18,110.18,0,0,1,389.09,543c-7.92,0-14.18-1.45-19.25-4.36,0,.25,0,.51,0,.76a41.34,41.34,0,0,0,2.2,13.32A.89.89,0,0,1,372.49,552.81Z" transform="translate(-79.4 -113.64)"/></svg>